HIERARCHY
ROOT Root
{
  OFFSET 0.0 0.0 0.0
  CHANNELS 6 Xposition Yposition Zposition Zrotation Yrotation Xrotation
  JOINT Hips
  {
    OFFSET 0.0 100.0 0.0
    CHANNELS 6 Xposition Yposition Zposition Zrotation Yrotation Xrotation
    JOINT Spine1
    {
      OFFSET 5.003913 -0.037094 -0.013727
      CHANNELS 3 Zrotation Yrotation Xrotation
      JOINT Spine2
      {
        OFFSET 7.125363 -1e-06 0.0
        CHANNELS 3 Zrotation Yrotation Xrotation
        JOINT Chest
        {
          OFFSET 7.594027 1e-06 0.0
          CHANNELS 3 Zrotation Yrotation Xrotation
          JOINT Neck1
          {
            OFFSET 26.313086 -0.460272 -0.181672
            CHANNELS 3 Zrotation Yrotation Xrotation
            JOINT Neck2
            {
              OFFSET 8.045911 0.0 0.0
              CHANNELS 3 Zrotation Yrotation Xrotation
              JOINT Head
              {
                OFFSET 6.432774 0.0 0.0
                CHANNELS 3 Zrotation Yrotation Xrotation
                JOINT HeadEnd
                {
                  OFFSET 16.169773 0.06451 0.00362
                  CHANNELS 3 Zrotation Yrotation Xrotation
                }
                JOINT Jaw
                {
                  OFFSET 0.108741 3.12938 0.002639
                  CHANNELS 3 Zrotation Yrotation Xrotation
                }
                JOINT LeftEye
                {
                  OFFSET 4.45173 8.166359 3.206392
                  CHANNELS 3 Zrotation Yrotation Xrotation
                }
                JOINT RightEye
                {
                  OFFSET 4.436895 8.135758 -3.222429
                  CHANNELS 3 Zrotation Yrotation Xrotation
                }
              }
            }
          }
          JOINT LeftShoulder
          {
            OFFSET 23.218927 5.195579 1.621656
            CHANNELS 3 Zrotation Yrotation Xrotation
            JOINT LeftArm
            {
              OFFSET 15.902118 2e-06 -2e-06
              CHANNELS 3 Zrotation Yrotation Xrotation
              JOINT LeftForeArm
              {
                OFFSET 28.739307 0.0 -1e-06
                CHANNELS 3 Zrotation Yrotation Xrotation
                JOINT LeftHand
                {
                  OFFSET 27.093981 -4e-06 0.0
                  CHANNELS 3 Zrotation Yrotation Xrotation
                  JOINT LeftHandThumb1
                  {
                    OFFSET 2.276781 3.380274 0.83384
                    CHANNELS 3 Zrotation Yrotation Xrotation
                    JOINT LeftHandThumb2
                    {
                      OFFSET 4.705309 -1e-06 -1e-06
                      CHANNELS 3 Zrotation Yrotation Xrotation
                      JOINT LeftHandThumb3
                      {
                        OFFSET 2.798515 0.0 3e-06
                        CHANNELS 3 Zrotation Yrotation Xrotation
                        JOINT LeftHandThumbEnd
                        {
                          OFFSET 3.180793 4e-06 -4e-06
                          CHANNELS 3 Zrotation Yrotation Xrotation
                        }
                      }
                    }
                  }
                  JOINT LeftHandIndex1
                  {
                    OFFSET 3.247786 2.352677 0.137192
                    CHANNELS 3 Zrotation Yrotation Xrotation
                    JOINT LeftHandIndex2
                    {
                      OFFSET 6.367095 1e-06 0.0
                      CHANNELS 3 Zrotation Yrotation Xrotation
                      JOINT LeftHandIndex3
                      {
                        OFFSET 3.662364 0.0 0.0
                        CHANNELS 3 Zrotation Yrotation Xrotation
                        JOINT LeftHandIndex4
                        {
                          OFFSET 2.329242 4e-06 -4e-06
                          CHANNELS 3 Zrotation Yrotation Xrotation
                          JOINT LeftHandIndexEnd
                          {
                            OFFSET 2.767823 1e-06 0.0
                            CHANNELS 3 Zrotation Yrotation Xrotation
                          }
                        }
                      }
                    }
                  }
                  JOINT LeftHandMiddle1
                  {
                    OFFSET 3.163612 0.945023 -0.406112
                    CHANNELS 3 Zrotation Yrotation Xrotation
                    JOINT LeftHandMiddle2
                    {
                      OFFSET 6.276789 3e-06 0.0
                      CHANNELS 3 Zrotation Yrotation Xrotation
                      JOINT LeftHandMiddle3
                      {
                        OFFSET 4.35652 -1e-06 4e-06
                        CHANNELS 3 Zrotation Yrotation Xrotation
                        JOINT LeftHandMiddle4
                        {
                          OFFSET 2.996877 0.0 8e-06
                          CHANNELS 3 Zrotation Yrotation Xrotation
                          JOINT LeftHandMiddleEnd
                          {
                            OFFSET 2.323256 3e-06 -4e-06
                            CHANNELS 3 Zrotation Yrotation Xrotation
                          }
                        }
                      }
                    }
                  }
                  JOINT LeftHandRing1
                  {
                    OFFSET 2.882606 -0.309162 0.107445
                    CHANNELS 3 Zrotation Yrotation Xrotation
                    JOINT LeftHandRing2
                    {
                      OFFSET 6.033198 0.0 4e-06
                      CHANNELS 3 Zrotation Yrotation Xrotation
                      JOINT LeftHandRing3
                      {
                        OFFSET 4.350578 3e-06 0.0
                        CHANNELS 3 Zrotation Yrotation Xrotation
                        JOINT LeftHandRing4
                        {
                          OFFSET 2.651321 2e-06 -7e-06
                          CHANNELS 3 Zrotation Yrotation Xrotation
                          JOINT LeftHandRingEnd
                          {
                            OFFSET 1.937663 1e-06 -4e-06
                            CHANNELS 3 Zrotation Yrotation Xrotation
                          }
                        }
                      }
                    }
                  }
                  JOINT LeftHandPinky1
                  {
                    OFFSET 2.865315 -1.525436 0.575687
                    CHANNELS 3 Zrotation Yrotation Xrotation
                    JOINT LeftHandPinky2
                    {
                      OFFSET 5.54936 1e-06 -8e-06
                      CHANNELS 3 Zrotation Yrotation Xrotation
                      JOINT LeftHandPinky3
                      {
                        OFFSET 3.070974 0.0 -4e-06
                        CHANNELS 3 Zrotation Yrotation Xrotation
                        JOINT LeftHandPinky4
                        {
                          OFFSET 1.549672 1e-06 0.0
                          CHANNELS 3 Zrotation Yrotation Xrotation
                          JOINT LeftHandPinkyEnd
                          {
                            OFFSET 1.952123 0.0 0.0
                            CHANNELS 3 Zrotation Yrotation Xrotation
                          }
                        }
                      }
                    }
                  }
                }
              }
            }
          }
          JOINT RightShoulder
          {
            OFFSET 23.161716 5.296122 -1.380114
            CHANNELS 3 Zrotation Yrotation Xrotation
            JOINT RightArm
            {
              OFFSET -16.027195 -2e-06 1.1e-05
              CHANNELS 3 Zrotation Yrotation Xrotation
              JOINT RightForeArm
              {
                OFFSET -28.736639 4e-06 2e-06
                CHANNELS 3 Zrotation Yrotation Xrotation
                JOINT RightHand
                {
                  OFFSET -27.133619 6e-06 0.0
                  CHANNELS 3 Zrotation Yrotation Xrotation
                  JOINT RightHandThumb1
                  {
                    OFFSET -2.274328 -3.351035 -0.83067
                    CHANNELS 3 Zrotation Yrotation Xrotation
                    JOINT RightHandThumb2
                    {
                      OFFSET -4.703594 -3e-06 2e-06
                      CHANNELS 3 Zrotation Yrotation Xrotation
                      JOINT RightHandThumb3
                      {
                        OFFSET -2.794935 -4e-06 -3e-06
                        CHANNELS 3 Zrotation Yrotation Xrotation
                        JOINT RightHandThumbEnd
                        {
                          OFFSET -3.183852 4e-06 1e-06
                          CHANNELS 3 Zrotation Yrotation Xrotation
                        }
                      }
                    }
                  }
                  JOINT RightHandIndex1
                  {
                    OFFSET -3.253496 -2.33755 -0.127667
                    CHANNELS 3 Zrotation Yrotation Xrotation
                    JOINT RightHandIndex2
                    {
                      OFFSET -6.344434 0.0 0.0
                      CHANNELS 3 Zrotation Yrotation Xrotation
                      JOINT RightHandIndex3
                      {
                        OFFSET -3.654871 0.0 -8e-06
                        CHANNELS 3 Zrotation Yrotation Xrotation
                        JOINT RightHandIndex4
                        {
                          OFFSET -2.327586 -1e-06 0.0
                          CHANNELS 3 Zrotation Yrotation Xrotation
                          JOINT RightHandIndexEnd
                          {
                            OFFSET -2.770001 3e-06 8e-06
                            CHANNELS 3 Zrotation Yrotation Xrotation
                          }
                        }
                      }
                    }
                  }
                  JOINT RightHandMiddle1
                  {
                    OFFSET -3.168223 -0.944764 0.411762
                    CHANNELS 3 Zrotation Yrotation Xrotation
                    JOINT RightHandMiddle2
                    {
                      OFFSET -6.266691 -1e-06 -4e-06
                      CHANNELS 3 Zrotation Yrotation Xrotation
                      JOINT RightHandMiddle3
                      {
                        OFFSET -4.348901 0.0 0.0
                        CHANNELS 3 Zrotation Yrotation Xrotation
                        JOINT RightHandMiddle4
                        {
                          OFFSET -3.00024 2e-06 -4e-06
                          CHANNELS 3 Zrotation Yrotation Xrotation
                          JOINT RightHandMiddleEnd
                          {
                            OFFSET -2.321477 -4e-06 -4e-06
                            CHANNELS 3 Zrotation Yrotation Xrotation
                          }
                        }
                      }
                    }
                  }
                  JOINT RightHandRing1
                  {
                    OFFSET -2.885654 0.293261 -0.119232
                    CHANNELS 3 Zrotation Yrotation Xrotation
                    JOINT RightHandRing2
                    {
                      OFFSET -6.032835 -1e-06 -4e-06
                      CHANNELS 3 Zrotation Yrotation Xrotation
                      JOINT RightHandRing3
                      {
                        OFFSET -4.33881 0.0 -4e-06
                        CHANNELS 3 Zrotation Yrotation Xrotation
                        JOINT RightHandRing4
                        {
                          OFFSET -2.654903 -4e-06 -4e-06
                          CHANNELS 3 Zrotation Yrotation Xrotation
                          JOINT RightHandRingEnd
                          {
                            OFFSET -1.935122 0.0 4e-06
                            CHANNELS 3 Zrotation Yrotation Xrotation
                          }
                        }
                      }
                    }
                  }
                  JOINT RightHandPinky1
                  {
                    OFFSET -2.866241 1.503904 -0.60527
                    CHANNELS 3 Zrotation Yrotation Xrotation
                    JOINT RightHandPinky2
                    {
                      OFFSET -5.553177 -2e-06 0.0
                      CHANNELS 3 Zrotation Yrotation Xrotation
                      JOINT RightHandPinky3
                      {
                        OFFSET -3.062664 -1e-06 -4e-06
                        CHANNELS 3 Zrotation Yrotation Xrotation
                        JOINT RightHandPinky4
                        {
                          OFFSET -1.546529 2e-06 4e-06
                          CHANNELS 3 Zrotation Yrotation Xrotation
                          JOINT RightHandPinkyEnd
                          {
                            OFFSET -1.952341 0.0 -4e-06
                            CHANNELS 3 Zrotation Yrotation Xrotation
                          }
                        }
                      }
                    }
                  }
                }
              }
            }
          }
        }
      }
    }
    JOINT LeftLeg
    {
      OFFSET -8.443107 2.567604 10.043214
      CHANNELS 3 Zrotation Yrotation Xrotation
      JOINT LeftShin
      {
        OFFSET 43.229198 1e-06 -1e-06
        CHANNELS 3 Zrotation Yrotation Xrotation
        JOINT LeftFoot
        {
          OFFSET 42.298611 1e-06 1e-06
          CHANNELS 3 Zrotation Yrotation Xrotation
          JOINT LeftToeBase
          {
            OFFSET 14.165858 1e-06 0.0
            CHANNELS 3 Zrotation Yrotation Xrotation
            JOINT LeftToeEnd
            {
              OFFSET 6.7141 -0.234461 0.0
              CHANNELS 3 Zrotation Yrotation Xrotation
            }
          }
        }
      }
    }
    JOINT RightLeg
    {
      OFFSET -8.303923 2.592729 -10.047278
      CHANNELS 3 Zrotation Yrotation Xrotation
      JOINT RightShin
      {
        OFFSET -43.369682 0.0 1e-06
        CHANNELS 3 Zrotation Yrotation Xrotation
        JOINT RightFoot
        {
          OFFSET -42.260784 4e-06 2e-06
          CHANNELS 3 Zrotation Yrotation Xrotation
          JOINT RightToeBase
          {
            OFFSET -14.222245 -2e-06 -1e-06
            CHANNELS 3 Zrotation Yrotation Xrotation
            JOINT RightToeEnd
            {
              OFFSET -6.660062 0.232574 -2e-06
              CHANNELS 3 Zrotation Yrotation Xrotation
            }
          }
        }
      }
    }
  }
}
MOTION
Frames: 4
Frame Time: 0.03333333333333333
0.0 0.0 0.0 0.0 -0.0 0.0 -3.214499 47.683887 -0.404392 95.496849 -61.304485 84.67157 9.276562 0.466036 0.203869 -6.206274 -0.822127 -1.523903 18.584675 3.127708 -2.521433 28.922676 2.799166 3.978953 -2.534344 -0.887743 1.674422 -20.154051 -0.092027 0.795129 6e-06 0.0 -0.0 -0.236428 -0.083705 0.025308 -0.02888 0.110479 0.133669 -0.098756 -0.277181 -0.06508 -38.834911 -68.296883 47.125362 83.894325 3.689914 -25.34119 30.266518 -2.444754 -0.185586 -38.34808 65.685349 -33.448997 17.636629 -26.322731 52.411205 -19.466661 -14.395598 29.410395 -3e-06 -8.774822 -2e-06 15.008398 -18.285442 7.050785 -0.609776 -1.795654 -3.889327 -4.80709 -11.046813 -2.937851 6e-06 -20.976021 1e-06 -5.019969 -25.033562 -4.031881 5e-06 0.0 0.0 -10.634533 -5.68697 -3.565588 10.573275 -17.922955 -3.113901 4e-06 -13.821211 1e-06 -0.501773 -31.181505 -4.027019 -11.200251 -58.689583 7.719623 -13.982714 -7.150198 -2.875041 13.772731 -8.401493 -3.218242 0.347736 -34.211555 0.771653 -0.963026 -17.73337 2.621018 1e-06 -0.0 -1e-06 -17.346418 -20.095219 -4.201782 21.757557 -1.638377 3.866428 1e-06 -6.338825 1e-06 -1.697587 -22.591745 -6.194009 -1e-06 -6e-06 -2e-06 123.555176 -82.483284 70.119392 76.359741 -23.708612 -18.747923 43.655075 -2.047766 -1.079585 -22.952343 70.067024 -10.481796 22.182137 -20.375902 49.933327 -16.701809 -16.74353 28.476528 -4e-06 -12.690601 -1e-06 17.403273 -17.850403 1.936111 -0.105921 -1.513856 -4.275882 -5.039041 -5.612871 -2.953557 2e-06 -11.020525 -2e-06 -6.111297 -15.89533 -3.840471 -0.0 -0.0 0.0 -10.283369 -5.680288 -4.341839 11.028296 -11.302404 -2.372634 -1.384269 -14.238577 -6.320123 -0.625436 -26.924191 -3.827599 -3.445439 -50.682289 -4.249914 -13.708524 -7.363475 -3.720943 18.141151 -14.052742 -3.242671 7e-06 -18.78727 -1e-06 -0.429711 -8.456044 2.555508 -0.0 0.0 -1e-06 -15.923536 -20.094482 -5.47359 30.419218 -7.19083 1.735931 2e-06 -8.162927 1e-06 -1.861901 -22.861469 -6.16794 -1e-06 -2e-06 0.0 139.24826 -18.635059 -1.720769 85.427544 -4.345621 1.399237 -55.132362 25.047525 -10.98412 -33.586567 1.796419 2.009556 -0.999999 0.0 -0.0 -67.068253 -4.44652 -0.712026 113.779037 -0.250659 0.248171 -63.385647 27.475914 -1.90876 -41.384521 0.812725 1.007224 -1.000002 -1e-06 -1e-06 
0.0 0.0 0.0 0.0 -0.0 0.0 -3.6703 48.283047 0.432776 95.738388 -61.261902 84.648239 9.257273 0.319409 0.171461 -6.366169 -0.959149 -1.573155 18.824982 2.752477 -2.639614 29.551548 2.506271 3.755177 -2.563536 -0.771216 1.668017 -20.274111 -0.207208 0.51378 6e-06 -1e-06 -0.0 -0.242013 -0.122133 0.014825 -0.000912 0.059371 0.132864 -0.093084 -0.297922 -0.089749 -38.945686 -69.085693 47.772446 83.852425 3.632156 -24.340759 29.837788 -2.320163 -0.124577 -36.061466 67.561806 -31.580572 17.636631 -26.322729 52.411194 -19.466658 -14.395598 29.410385 -1e-06 -8.774822 -2e-06 14.956512 -18.286076 6.928384 -0.609777 -1.795653 -3.889327 -4.807089 -11.046811 -2.937852 5e-06 -20.976019 2e-06 -5.01997 -25.033556 -4.031884 6e-06 -1e-06 -0.0 -10.634537 -5.686969 -3.565587 10.573277 -17.922953 -3.113901 3e-06 -13.821211 0.0 -0.501775 -31.181505 -4.027019 -11.127419 -58.705963 7.702125 -13.982716 -7.150198 -2.875042 13.77273 -8.401491 -3.21824 0.347733 -34.211544 0.771656 -0.963028 -17.733366 2.62102 1e-06 -0.0 -1e-06 -17.346422 -20.095217 -4.201784 21.757563 -1.638375 3.866429 1e-06 -6.338823 1e-06 -1.697588 -22.591747 -6.194009 -1e-06 -5e-06 -2e-06 121.757561 -81.626724 72.27639 74.942993 -21.023918 -18.960808 48.312717 -1.997126 -1.260416 -20.914104 69.133316 -7.630752 22.182121 -20.3759 49.933327 -16.701809 -16.743526 28.47653 -3e-06 -12.690601 1e-06 17.423119 -17.909639 2.134375 -0.105921 -1.513858 -4.275884 -5.039043 -5.612872 -2.953557 4e-06 -11.020523 -1e-06 -6.111299 -15.895332 -3.840471 -0.0 -1e-06 -1e-06 -10.283374 -5.68029 -4.34184 11.028296 -11.302404 -2.372634 -1.384269 -14.238583 -6.320122 -0.625439 -26.924191 -3.827601 -3.602667 -50.88142 -4.093675 -13.708527 -7.363477 -3.720943 18.14115 -14.05274 -3.242672 7e-06 -18.78727 -3e-06 -0.429712 -8.456044 2.555505 0.0 0.0 2e-06 -15.923538 -20.094486 -5.473585 30.41921 -7.190827 1.73593 3e-06 -8.162925 -1e-06 -1.861903 -22.861469 -6.167944 -0.0 -3e-06 -0.0 138.220413 -19.655615 -1.671005 86.910431 -4.427399 1.41032 -56.214443 25.766956 -11.598683 -30.541868 1.813615 2.088754 -0.999999 0.0 0.0 -66.170967 -4.131438 -1.037277 111.980774 -0.294887 0.249267 -61.877056 27.886097 -1.001756 -41.111729 0.820468 0.978488 -1.000001 -0.0 1e-06 
0.0 0.0 0.0 0.0 -0.0 0.0 -4.123882 48.735481 1.289578 96.586571 -60.96571 84.227821 9.217963 0.060253 0.158984 -6.445198 -1.012766 -1.614756 19.222385 2.218572 -2.936373 30.354822 2.145311 3.511784 -2.579525 -0.753925 1.40166 -20.440014 -0.666777 0.203837 6e-06 1e-06 -0.0 -0.231896 -0.106793 0.00394 -0.006957 0.043172 0.127475 -0.086625 -0.248547 -0.113169 -38.629345 -69.989838 48.11272 83.363449 3.591851 -23.113777 29.707184 -1.923995 -0.021506 -34.003319 69.076942 -29.414856 17.636629 -26.322737 52.411194 -19.466665 -14.3956 29.410393 -2e-06 -8.774822 -1e-06 15.007087 -18.325327 6.758446 -0.609776 -1.795652 -3.889326 -4.807089 -11.04681 -2.93785 4e-06 -20.976021 2e-06 -5.019971 -25.03356 -4.031879 6e-06 -0.0 1e-06 -10.634533 -5.68697 -3.565585 10.573275 -17.922953 -3.1139 2e-06 -13.821212 2e-06 -0.501776 -31.181505 -4.027017 -11.06125 -58.657871 7.68044 -13.982712 -7.150197 -2.875041 13.77273 -8.401493 -3.218241 0.347732 -34.211555 0.771656 -0.963029 -17.733368 2.62102 0.0 -0.0 0.0 -17.346416 -20.095215 -4.201779 21.757557 -1.638375 3.866427 1e-06 -6.338823 1e-06 -1.697589 -22.591743 -6.194005 -1e-06 -6e-06 -1e-06 120.335693 -80.382065 73.834511 73.873978 -17.442873 -20.094267 52.586071 -2.051777 -1.330518 -20.144781 68.160416 -5.73737 22.182112 -20.375898 49.933327 -16.701815 -16.743528 28.476532 -5e-06 -12.690601 2e-06 17.654249 -17.968359 2.14334 -0.105919 -1.513855 -4.275882 -5.039042 -5.612871 -2.953559 3e-06 -11.020526 -1e-06 -6.111297 -15.895336 -3.840469 0.0 1e-06 -0.0 -10.283371 -5.680287 -4.341836 11.028295 -11.302408 -2.372636 -1.384266 -14.238583 -6.320119 -0.625437 -26.924194 -3.8276 -3.726743 -51.036186 -3.997997 -13.708524 -7.363478 -3.720938 18.14115 -14.052742 -3.242676 7e-06 -18.78727 -1e-06 -0.429713 -8.456045 2.555504 0.0 0.0 -0.0 -15.923536 -20.094484 -5.473587 30.419218 -7.190827 1.735929 2e-06 -8.162927 -1e-06 -1.861902 -22.861473 -6.167945 -0.0 -3e-06 1e-06 136.498062 -20.185886 -1.448116 89.907181 -4.418992 1.2756 -58.780575 25.499376 -12.893232 -29.232893 1.813034 2.147191 -1.000001 0.0 1e-06 -65.011032 -4.199172 -1.198936 110.248833 -0.425687 0.283452 -59.932411 28.801207 0.225143 -40.375198 0.82127 0.936599 -1.000002 -0.0 1e-06 
0.0 0.0 0.0 0.0 -0.0 0.0 -4.544816 48.99662 2.063332 97.836433 -60.506481 83.595093 9.264006 -0.215207 0.190851 -6.418272 -1.084909 -1.616447 19.557852 1.708795 -3.267297 31.054541 1.859761 3.234412 -2.56118 -0.806552 1.027595 -20.619226 -1.207261 -0.201195 6e-06 -0.0 -0.0 -0.222163 -0.061387 -0.0055 -0.021414 0.05881 0.118079 -0.080764 -0.172859 -0.125792 -38.450352 -70.990181 48.567585 82.914833 3.60413 -21.982527 29.672552 -1.572728 0.079595 -32.736015 70.3526 -27.458317 17.636625 -26.322721 52.411179 -19.46665 -14.395592 29.410378 -2e-06 -8.774819 -4e-06 14.922324 -18.337965 6.702341 -0.609775 -1.795654 -3.889326 -4.807088 -11.046807 -2.93785 3e-06 -20.976011 0.0 -5.019969 -25.033546 -4.03188 6e-06 -1e-06 -1e-06 -10.634529 -5.686968 -3.565586 10.573268 -17.922945 -3.113898 2e-06 -13.821204 -0.0 -0.501777 -31.181488 -4.027016 -11.042712 -58.588551 7.720881 -13.982709 -7.150196 -2.875041 13.772724 -8.401491 -3.218241 0.347731 -34.211544 0.771653 -0.963028 -17.733366 2.621018 -1e-06 -1e-06 -1e-06 -17.346413 -20.095211 -4.20178 21.757549 -1.638375 3.866427 1e-06 -6.33882 1e-06 -1.697589 -22.59174 -6.194005 -1e-06 -5e-06 -1e-06 120.669647 -79.057274 73.325653 73.296028 -13.246258 -22.526079 55.213154 -2.154918 -1.575902 -20.06311 67.349686 -5.025552 22.182121 -20.375887 49.933315 -16.701813 -16.74353 28.476532 -4e-06 -12.690603 -4e-06 17.756662 -18.000038 2.178368 -0.105918 -1.513854 -4.275882 -5.039043 -5.612872 -2.953557 4e-06 -11.020523 -3e-06 -6.111297 -15.895334 -3.840471 -0.0 0.0 -1e-06 -10.283369 -5.680287 -4.341841 11.028292 -11.302404 -2.372633 -1.384269 -14.238581 -6.32012 -0.625438 -26.924191 -3.827601 -3.831426 -51.06744 -3.926043 -13.708523 -7.363473 -3.720943 18.141146 -14.052741 -3.242675 9e-06 -18.787266 -1e-06 -0.429713 -8.456044 2.555501 0.0 1e-06 -0.0 -15.923536 -20.094484 -5.473588 30.419218 -7.190827 1.735932 4e-06 -8.162925 -2e-06 -1.861899 -22.861467 -6.167946 -1e-06 -2e-06 -1e-06 134.118729 -20.342726 -0.949307 94.435036 -4.199172 1.023665 -61.73315 24.873631 -13.999513 -28.46888 1.807963 2.19915 -0.999999 -0.0 -0.0 -63.738384 -4.612221 -1.111321 108.892563 -0.486612 0.308255 -58.361637 29.540293 1.095222 -39.691383 0.816236 0.920561 -1.000002 -0.0 -2e-06 
